<svg xmlns="http://www.w3.org/2000/svg" width="1024" height="1024" viewBox="0 0 1024 1024">
  <defs>
    <linearGradient id="brand" x1="0" y1="0" x2="1" y2="1">
      <stop offset="0" stop-color="#7b5cf5"/>
      <stop offset="0.5" stop-color="#5a78f5"/>
      <stop offset="1" stop-color="#12e6dc"/>
    </linearGradient>
    <radialGradient id="hi" cx="0.32" cy="0.26" r="0.75">
      <stop offset="0" stop-color="#ffffff" stop-opacity="0.45"/>
      <stop offset="0.5" stop-color="#ffffff" stop-opacity="0.08"/>
      <stop offset="1" stop-color="#ffffff" stop-opacity="0"/>
    </radialGradient>
    <filter id="soft" x="-20%" y="-20%" width="140%" height="140%">
      <feDropShadow dx="0" dy="10" stdDeviation="18" flood-color="#000000" flood-opacity="0.35"/>
    </filter>
  </defs>

  <!-- gradient disc -->
  <circle cx="512" cy="512" r="470" fill="url(#brand)"/>
  <circle cx="512" cy="512" r="470" fill="url(#hi)"/>

  <!-- wrench mark (lucide) -->
  <g filter="url(#soft)" transform="translate(512 512) scale(27) translate(-12 -12)"
     fill="none" stroke="#ffffff" stroke-width="2" stroke-linecap="round" stroke-linejoin="round">
    <path d="M14.7 6.3a1 1 0 0 0 0 1.4l1.6 1.6a1 1 0 0 0 1.4 0l3.77-3.77a6 6 0 0 1-7.94 7.94l-6.91 6.91a2.12 2.12 0 0 1-3-3l6.91-6.91a6 6 0 0 1 7.94-7.94l-3.76 3.76z"/>
  </g>
</svg>
